HIERARCHY
ROOT Hips
{
 OFFSET 0.000000 0.000000 0.000000
 CHANNELS 6 Xposition Yposition Zposition Yrotation Xrotation Zrotation
 JOINT Chest
 {
  OFFSET 0.000000 10.081381 0.003837
  CHANNELS 3 Yrotation Xrotation Zrotation
  JOINT Chest2
  {
   OFFSET 0.000000 11.149970 -0.006970
   CHANNELS 3 Yrotation Xrotation Zrotation
   JOINT Chest3
   {
    OFFSET 0.000000 10.074755 0.000000
    CHANNELS 3 Yrotation Xrotation Zrotation
    JOINT Chest4
    {
     OFFSET 0.000000 10.074755 0.000000
     CHANNELS 3 Yrotation Xrotation Zrotation
     JOINT Neck
     {
      OFFSET 0.000000 14.152669 0.000000
      CHANNELS 3 Yrotation Xrotation Zrotation
      JOINT Head
      {
       OFFSET 0.000000 9.374825 -0.016576
       CHANNELS 3 Yrotation Xrotation Zrotation
       End Site
       {
        OFFSET 0.000000 17.989483 -0.008658
       }
      }
     }
     JOINT RightCollar
     {
      OFFSET -3.036955 7.892397 0.000000
      CHANNELS 3 Yrotation Xrotation Zrotation
      JOINT RightShoulder
      {
       OFFSET -14.042521 0.000000 0.000000
       CHANNELS 3 Yrotation Xrotation Zrotation
       JOINT RightElbow
       {
        OFFSET -29.925339 0.000000 0.000000
        CHANNELS 3 Yrotation Xrotation Zrotation
        JOINT RightWrist
        {
         OFFSET -24.510696 0.000000 0.001899
         CHANNELS 3 Yrotation Xrotation Zrotation
         End Site
         {
          OFFSET -18.334084 0.000000 0.000000
         }
        }
       }
      }
     }
     JOINT LeftCollar
     {
      OFFSET 3.036955 7.892397 0.000000
      CHANNELS 3 Yrotation Xrotation Zrotation
      JOINT LeftShoulder
      {
       OFFSET 14.042521 0.000000 0.000000
       CHANNELS 3 Yrotation Xrotation Zrotation
       JOINT LeftElbow
       {
        OFFSET 29.925339 0.000000 0.000000
        CHANNELS 3 Yrotation Xrotation Zrotation
        JOINT LeftWrist
        {
         OFFSET 24.510696 0.000000 0.001899
         CHANNELS 3 Yrotation Xrotation Zrotation
         End Site
         {
          OFFSET 18.334084 0.000000 0.000000
         }
        }
       }
      }
     }
    }
   }
  }
 }
 JOINT RightHip
 {
  OFFSET -8.156645 -0.018803 -0.001919
  CHANNELS 3 Yrotation Xrotation Zrotation
  JOINT RightKnee
  {
   OFFSET 0.000000 -42.726507 0.001815
   CHANNELS 3 Yrotation Xrotation Zrotation
   JOINT RightAnkle
   {
    OFFSET 0.000000 -41.703583 0.009471
    CHANNELS 3 Yrotation Xrotation Zrotation
    JOINT RightToe
    {
     OFFSET 0.000000 -6.552816 14.546113
     CHANNELS 3 Yrotation Xrotation Zrotation
     End Site
     {
      OFFSET 0.000000 -1.509386 6.335350
     }
    }
   }
  }
 }
 JOINT LeftHip
 {
  OFFSET 8.156645 -0.018803 -0.001919
  CHANNELS 3 Yrotation Xrotation Zrotation
  JOINT LeftKnee
  {
   OFFSET 0.000000 -42.726507 0.001815
   CHANNELS 3 Yrotation Xrotation Zrotation
   JOINT LeftAnkle
   {
    OFFSET 0.000000 -41.703583 0.009471
    CHANNELS 3 Yrotation Xrotation Zrotation
    JOINT LeftToe
    {
     OFFSET 0.000000 -6.552816 14.546113
     CHANNELS 3 Yrotation Xrotation Zrotation
     End Site
     {
      OFFSET 0.000000 -1.509386 6.335350
     }
    }
   }
  }
 }
}
MOTION
Frames: 5
Frame Time: 0.016667
-14.157347 88.024988 28.785054 -8.543540 -6.259583 -5.517842 2.903096 3.652968 1.344890 1.190748 1.553397 0.566988 1.190748 1.553397 0.566988 0.891566 1.166159 0.422189 -2.963260 16.341265 -1.867197 -4.835975 -5.848948 -2.406174 0.824705 3.120344 11.110109 32.521197 23.258000 132.891012 -102.775875 -3.211387 -24.528342 1.223952 -38.129708 -29.427150 -6.576740 4.483848 -21.460254 -33.977573 34.418650 -134.122351 88.210435 19.602101 -3.301876 8.275511 -25.840384 14.999676 129.194356 -6.025905 -4.073611 6.965040 4.290788 3.643772 -12.208338 -8.538514 7.402977 0.031493 -0.101922 0.069612 136.116411 -6.117853 -7.217440 6.056305 15.294450 8.091550 -5.810966 -26.285436 60.499997 -0.090177 -0.001041 -0.027400
-14.285363 88.776906 28.759137 -8.610149 -6.160295 -5.925018 3.070770 3.475946 1.669150 1.211511 1.451271 0.567091 1.211511 1.451271 0.567091 0.907238 1.089583 0.422420 -2.881147 16.526202 -1.737386 -4.729070 -5.503188 -2.198956 0.572926 3.970203 11.025583 29.485732 22.211020 132.936871 -102.122433 -4.509310 -24.070264 8.530575 -39.937690 -33.981593 -6.076003 5.119754 -21.531929 -31.237604 33.555097 -133.624269 88.085552 19.310390 -4.540386 6.964500 -27.421090 14.699104 129.497364 -6.371060 -4.466405 6.888460 4.441779 3.663502 -12.458826 -9.276634 7.450937 -0.011078 0.598791 0.061035 136.645178 -6.329754 -7.621209 5.810222 15.255449 8.018056 -6.109496 -26.191504 60.590512 -0.007359 0.040962 0.025005
-14.327680 88.866710 28.751551 -8.640319 -6.078434 -5.918413 2.940285 3.271462 1.451253 1.153376 1.373796 0.526401 1.153376 1.373796 0.526401 0.863808 1.031345 0.392190 -2.613466 16.676121 -1.548528 -4.298785 -5.222694 -1.947057 0.844389 5.164780 11.110684 27.128157 20.773240 133.445263 -101.657819 -5.786996 -23.046522 16.217521 -41.813040 -37.598822 -4.937487 5.281494 -21.531744 -28.624397 33.477382 -133.339734 88.074709 18.689924 -5.275718 6.113268 -28.643821 14.662628 129.796527 -6.384073 -4.550696 6.797095 4.581669 3.652490 -12.621424 -9.160617 7.453371 0.018892 0.432258 0.078822 137.060664 -6.262747 -7.693140 5.548333 15.207485 7.935682 -6.213821 -26.192742 60.659378 -0.057347 0.026554 0.019808
-14.432406 88.799630 28.792177 -8.743196 -6.086061 -6.045101 2.970349 3.238674 1.421231 1.147816 1.345108 0.510318 1.147816 1.345108 0.510318 0.859700 1.009795 0.380196 -2.464649 16.685242 -1.431905 -4.064042 -5.204420 -1.783626 0.958310 6.146480 11.165611 25.242020 19.157293 134.309715 -101.380565 -6.787467 -21.684047 22.748170 -43.246375 -39.997694 -4.295615 5.618162 -21.494182 -25.883504 33.185082 -132.908411 88.221127 18.181292 -5.591031 5.632423 -29.792904 14.484754 130.243508 -6.551120 -4.657028 6.688130 4.724808 3.637614 -12.750874 -9.037652 7.451573 0.045708 0.245094 0.086631 137.504760 -6.348607 -7.806174 5.279178 15.153030 7.839560 -6.236275 -26.072937 60.665455 -0.008912 -0.066670 0.059848
-14.555873 88.750015 28.829998 -8.729930 -5.910929 -6.149939 2.927784 3.154946 1.392923 1.164748 1.316898 0.507356 1.164748 1.316898 0.507356 0.872430 0.988645 0.377992 -2.413799 16.587254 -1.390681 -3.984821 -5.385888 -1.723101 1.066097 6.894491 11.188053 23.370471 17.729089 135.389723 -101.122691 -7.397183 -20.426825 26.963692 -44.271059 -41.488151 -3.998840 6.411075 -21.421771 -23.527939 32.227456 -132.570522 88.270882 17.984619 -6.316456 5.389885 -30.859998 14.273913 130.574901 -6.549018 -4.864922 6.572331 4.871923 3.621146 -12.843706 -8.980139 7.462390 0.046074 0.084748 0.076962 137.791523 -6.318800 -8.018934 5.018079 15.091322 7.751138 -6.318435 -26.024159 60.731332 -0.012669 -0.043467 0.072243
